<svg xmlns="http://www.w3.org/2000/svg" xmlns:xlink="http://www.w3.org/1999/xlink" width="48" height="48" viewBox="0 0 64 64" fill="currentcolor" class="me-2"><g id="surface1"><path style="stroke: none;" d="M 37.5 1.125 C 37.621094 1.144531 37.742188 1.164062 37.867188 1.1875 C 44.027344 2.242188 50.164062 5.320312 54.5 9.875 C 54.597656 9.972656 54.695312 10.070312 54.796875 10.171875 C 54.90625 10.28125 55.011719 10.386719 55.125 10.5 C 55.242188 10.613281 55.242188 10.613281 55.367188 10.726562 C 56.210938 11.542969 56.921875 12.433594 57.625 13.375 C 57.683594 13.457031 57.746094 13.535156 57.808594 13.621094 C 58.875 15.050781 59.785156 16.550781 60.625 18.125 C 60.675781 18.21875 60.726562 18.316406 60.78125 18.414062 C 62.175781 21.058594 63.09375 24.0625 63.625 27 C 63.644531 27.105469 63.664062 27.210938 63.6875 27.316406 C 64.339844 30.871094 64.320312 34.960938 63.625 38.5 C 63.605469 38.613281 63.585938 38.722656 63.5625 38.839844 C 62.726562 43.472656 60.835938 47.867188 58 51.625 C 57.949219 51.695312 57.894531 51.765625 57.84375 51.835938 C 57.230469 52.660156 56.59375 53.449219 55.898438 54.203125 C 55.71875 54.398438 55.542969 54.59375 55.371094 54.792969 C 52.464844 58.132812 48.589844 60.746094 44.496094 62.402344 C 44.328125 62.46875 44.160156 62.539062 43.992188 62.609375 C 41.910156 63.488281 41.910156 63.488281 40.875 63.25 C 40.457031 63.042969 40.203125 62.773438 39.984375 62.355469 C 39.84375 61.894531 39.839844 61.457031 39.839844 60.980469 C 39.839844 60.832031 39.839844 60.832031 39.839844 60.675781 C 39.835938 60.457031 39.835938 60.238281 39.835938 60.019531 C 39.835938 59.671875 39.835938 59.324219 39.832031 58.976562 C 39.824219 57.988281 39.820312 57 39.816406 56.011719 C 39.816406 55.40625 39.8125 54.800781 39.808594 54.195312 C 39.804688 53.96875 39.804688 53.738281 39.804688 53.507812 C 39.804688 50.980469 39.410156 48.882812 37.75 46.875 C 38.449219 46.714844 39.144531 46.574219 39.851562 46.457031 C 43.507812 45.835938 47.203125 44.382812 49.53125 41.351562 C 51.289062 38.765625 52.128906 35.605469 52.25 32.5 C 52.253906 32.371094 52.253906 32.371094 52.261719 32.242188 C 52.371094 29.085938 51.785156 25.835938 49.625 23.398438 C 49.128906 22.8125 49.128906 22.8125 49.09375 22.273438 C 49.140625 22.097656 49.195312 21.921875 49.25 21.75 C 49.914062 19.160156 49.664062 16.753906 48.75 14.25 C 48.546875 14.046875 48.328125 14.09375 48.046875 14.085938 C 45.417969 14.125 42.429688 15.707031 40.378906 17.285156 C 39.679688 17.53125 38.714844 17.167969 38.007812 17.007812 C 33.738281 16.085938 29.0625 16.085938 24.84375 17.273438 C 24.207031 17.410156 23.835938 17.367188 23.265625 17.054688 C 23.140625 16.972656 23.019531 16.890625 22.890625 16.804688 C 21.597656 15.976562 20.238281 15.324219 18.8125 14.765625 C 18.722656 14.730469 18.628906 14.695312 18.535156 14.65625 C 17.703125 14.339844 16.902344 14.085938 16 14.109375 C 15.882812 14.113281 15.761719 14.113281 15.640625 14.117188 C 15.554688 14.117188 15.464844 14.121094 15.375 14.125 C 14.140625 16.460938 14.09375 19.246094 14.75 21.75 C 14.78125 21.84375 14.8125 21.9375 14.84375 22.03125 C 14.90625 22.273438 14.90625 22.273438 14.875 22.75 C 14.625 23.121094 14.347656 23.445312 14.050781 23.78125 C 11.863281 26.285156 11.578125 29.917969 11.785156 33.085938 C 12.078125 36.769531 13.285156 40.613281 16.125 43.125 C 18.878906 45.304688 22.203125 46.347656 25.664062 46.691406 C 26 46.75 26 46.75 26.25 47 C 26.195312 47.058594 26.136719 47.117188 26.082031 47.175781 C 25.375 47.9375 24.832031 48.710938 24.65625 49.753906 C 24.425781 51.109375 24.425781 51.109375 23.929688 51.507812 C 22.894531 51.933594 21.734375 52.039062 20.625 52.125 C 20.519531 52.132812 20.410156 52.144531 20.300781 52.152344 C 18.617188 52.226562 17.226562 51.464844 16.003906 50.378906 C 15.578125 49.953125 15.269531 49.457031 14.945312 48.953125 C 13.824219 47.261719 12.542969 45.929688 10.503906 45.441406 C 9.839844 45.324219 9.269531 45.445312 8.625 45.625 C 8.710938 46.058594 8.710938 46.058594 8.875 46.5 C 9.097656 46.628906 9.097656 46.628906 9.375 46.75 C 10.273438 47.363281 11.097656 47.996094 11.75 48.875 C 11.816406 48.964844 11.882812 49.050781 11.949219 49.140625 C 12.578125 50.0625 13.027344 51.070312 13.480469 52.085938 C 13.964844 53.148438 14.546875 53.988281 15.5625 54.601562 C 15.671875 54.667969 15.78125 54.738281 15.894531 54.808594 C 18.371094 56.148438 21.414062 55.863281 24.125 55.625 C 24.136719 56.535156 24.144531 57.445312 24.152344 58.355469 C 24.15625 58.664062 24.160156 58.972656 24.164062 59.28125 C 24.167969 59.726562 24.171875 60.171875 24.171875 60.617188 C 24.175781 60.753906 24.179688 60.894531 24.183594 61.035156 C 24.183594 61.839844 24.125 62.355469 23.625 63 C 23.082031 63.398438 22.390625 63.3125 21.75 63.25 C 21.316406 63.144531 20.914062 62.992188 20.5 62.820312 C 20.332031 62.753906 20.332031 62.753906 20.160156 62.683594 C 17.550781 61.625 15.125 60.320312 12.875 58.625 C 12.804688 58.574219 12.734375 58.523438 12.664062 58.46875 C 6.503906 53.886719 2.207031 47.058594 0.578125 39.578125 C 0.546875 39.441406 0.519531 39.304688 0.488281 39.164062 C 0.0546875 37.070312 -0.046875 34.996094 -0.0390625 32.859375 C -0.0390625 32.734375 -0.0390625 32.613281 -0.0390625 32.484375 C -0.03125 30.632812 0.015625 28.820312 0.375 27 C 0.402344 26.867188 0.425781 26.734375 0.453125 26.601562 C 1.636719 20.820312 4.234375 15.761719 8.089844 11.308594 C 8.234375 11.140625 8.378906 10.972656 8.523438 10.804688 C 8.980469 10.277344 9.449219 9.804688 9.980469 9.355469 C 10.167969 9.195312 10.355469 9.027344 10.535156 8.855469 C 12.246094 7.234375 14.210938 5.921875 16.25 4.75 C 16.328125 4.703125 16.410156 4.65625 16.492188 4.609375 C 19.578125 2.851562 23.007812 1.714844 26.5 1.125 C 26.617188 1.105469 26.738281 1.085938 26.859375 1.0625 C 30.324219 0.488281 34.039062 0.53125 37.5 1.125 Z M 37.5 1.125 "></path></g></svg>