<svg width="357" height="104" viewBox="0 0 357 104" fill="none" xmlns="http://www.w3.org/2000/svg">
<path d="M78.6646 76.2369C78.107 71.1377 75.7744 68.4625 72.8527 67.1917C73.1983 66.4856 73.6303 65.7168 74.1801 64.8853C74.29 64.7441 74.6042 64.3675 74.8869 64.038C76.4106 62.2494 79.2458 58.9153 81.115 55.5498C89.935 39.609 87.6966 27.316 84.2645 19.8084C80.526 11.6418 74.6356 7.30361 74.3843 7.12318L69.7505 3.82832C70.0096 5.83661 70.0803 7.83707 69.9468 9.81398L68.2032 8.30776C68.5174 11.7831 68.8473 15.3133 68.6038 18.5532L67.0566 17.4157L67.4336 24.586C68.2975 41.0995 61.6924 47.3833 57.8989 49.6112C52.0321 19.5103 37.1254 2.06321 15.8492 0.470695L9.51892 0C10.8619 1.59252 11.985 3.60081 12.9668 5.86799L10.7913 6.0092C16.0848 12.3714 20.5851 18.8043 23.1533 24.2486L20.9228 24.735C20.9228 24.735 29.9469 35.2472 34.0152 44.614C39.3637 56.9305 39.8585 69.1372 35.4996 80.8967C33.7482 85.6194 30.1275 89.3692 25.5801 91.1814C18.5745 93.9742 11.6473 94.186 2.84311 87.1962L8.0581 96.1551C4.68878 95.0254 0 91.3854 0 91.3854L3.92695 102.015C8.79636 103.082 16.7445 104 23.758 104H23.8052C43.597 103.992 59.9645 96.3277 71.3762 81.7989C73.2611 81.5714 74.7534 81.0536 75.8844 80.3711L88.9532 85.941L78.6725 76.2369H78.6646ZM28.384 97.2141C34.5257 94.6567 39.3794 89.581 41.7435 83.211C46.6836 69.906 46.0788 55.5655 40.0235 41.7506C37.7223 36.5102 35.0598 32.2897 32.9549 29.3557L34.4786 29.1046C30.049 21.2048 25.1246 14.3013 19.8704 8.0881C32.0125 9.92381 46.0003 22.46 51.4901 51.5018C54.9144 70.6042 60.4907 77.6568 64.0328 80.2534C54.9459 90.546 42.9922 96.2414 28.384 97.222V97.2141ZM69.8211 59.739C69.1536 60.5235 68.8708 60.853 68.6588 61.1903C67.4807 62.979 66.6403 64.6578 66.067 66.2346C64.8339 66.3209 63.648 66.5013 62.5563 66.721C61.4489 64.1165 60.3179 60.7353 59.2734 56.35C63.7501 54.3496 73.7952 45.7358 74.0151 28.1632L75.1539 29.034C75.1932 22.7659 75.0283 19.9967 74.2507 15.7683C81.4135 26.2883 84.2645 36.1101 75.2796 52.3413C73.7402 55.134 71.1877 58.1308 69.8133 59.739H69.8211Z" fill="black"/>
<path d="M145.272 41.1623V72.7067C145.272 81.1164 150.801 80.9831 161.584 80.4575V93.2054C139.743 95.8335 131.056 89.785 131.056 72.7067V41.1623H118.953V27.4964H131.056V13.2972L145.264 9.09229V27.4886H161.576V41.1544H145.264L145.272 41.1623Z" fill="black"/>
<path d="M207.365 81.9009C215.258 81.9009 221.18 78.355 224.337 73.7501L236.047 80.583C229.992 89.5184 220.127 94.9078 207.231 94.9078C185.523 94.9078 171.441 80.0574 171.441 60.3431C171.441 40.6289 185.523 25.7784 206.179 25.7784C226.834 25.7784 239.204 41.5467 239.204 60.4765C239.204 62.4456 238.945 64.548 238.678 66.3915H186.308C188.547 76.6448 196.833 81.9009 207.357 81.9009H207.365ZM224.863 54.8281C222.892 43.5236 214.598 38.6598 206.045 38.6598C195.387 38.6598 188.154 44.9671 186.175 54.8281H224.855H224.863Z" fill="black"/>
<path d="M286.178 26.3119V41.6879C276.84 41.0289 265.915 45.3671 265.915 60.0842V93.2054H251.708V27.4886H265.915V38.5264C269.866 29.591 277.885 26.304 286.178 26.304V26.3119Z" fill="black"/>
<path d="M356.565 52.8591V93.2055H342.357V54.3025C342.357 44.316 336.569 39.0599 327.623 39.0599C318.678 39.0599 310.91 44.5827 310.91 57.9818V93.2055H296.703V27.4886H310.91V35.8984C315.254 29.0655 322.353 25.7784 331.307 25.7784C346.041 25.7784 356.573 35.765 356.573 52.8512L356.565 52.8591Z" fill="black"/>
</svg>
