<svg xmlns="http://www.w3.org/2000/svg" xmlns:xlink="http://www.w3.org/1999/xlink" width="48" height="48" viewBox="0 0 64 64" class="me-2" style="color: white;" fill="currentColor"><g id="surface1"><path d="M 5.539062 0 C 12.453125 -0.488281 18.59375 0.90625 23.945312 5.484375 C 30.226562 11.765625 34.648438 20.679688 35.691406 29.539062 C 39.15625 26.636719 40.277344 23.480469 40.867188 19.023438 C 41.046875 16.9375 41.1875 14.855469 41.308594 12.769531 C 41.398438 11.355469 41.488281 9.941406 41.582031 8.527344 C 41.617188 7.910156 41.65625 7.289062 41.691406 6.652344 C 41.839844 5.011719 42.105469 3.453125 42.460938 1.847656 C 47.757812 4.871094 51.164062 8.625 53.492188 14.316406 C 55.355469 21.167969 53.542969 28.269531 50.460938 34.460938 C 49.128906 36.601562 47.671875 38.605469 46.152344 40.617188 C 45.949219 41.023438 45.746094 41.425781 45.539062 41.847656 C 46.453125 42.152344 46.453125 42.152344 47.382812 42.460938 C 47.941406 43.632812 48.492188 44.804688 49.035156 45.984375 C 50.488281 48.496094 52.640625 50.367188 54.769531 52.308594 C 54.160156 52.613281 54.160156 52.613281 53.539062 52.921875 C 52.550781 52.535156 51.578125 52.105469 50.617188 51.652344 C 48.597656 50.828125 47.621094 50.4375 45.421875 50.652344 C 43.480469 51.820312 42.183594 53.175781 40.632812 54.808594 C 33.21875 61.878906 23.773438 64.113281 13.882812 64.078125 C 13.261719 64.078125 12.640625 64.082031 12 64.085938 C 5.105469 64.074219 5.105469 64.074219 2.460938 63.382812 C 1.480469 62.179688 1.480469 62.179688 0.921875 60.691406 C 0.726562 60.207031 0.53125 59.71875 0.328125 59.214844 C 0 57.847656 0 57.847656 0.617188 56 C 1.425781 56.40625 2.238281 56.8125 3.078125 57.230469 C 2.46875 55.402344 2.46875 55.402344 1.847656 53.539062 C 2.292969 53.792969 2.292969 53.792969 2.75 54.054688 C 6.757812 56.222656 10.050781 57.210938 14.539062 56 C 17.527344 54.847656 19.335938 53.238281 20.921875 50.460938 C 24.105469 42.917969 23.308594 35.132812 20.308594 27.691406 C 18.515625 23.851562 16.417969 20.421875 13.660156 17.199219 C 12.921875 16 12.921875 16 12.683594 14.242188 C 12.203125 11.773438 11.128906 10.546875 9.539062 8.617188 C 7.464844 6.09375 6.488281 4.488281 6.152344 1.230469 C 5.949219 0.824219 5.746094 0.417969 5.539062 0 Z M 13.539062 5.539062 C 15.253906 8.691406 17.191406 11.5625 19.332031 14.445312 C 20.402344 16.152344 20.925781 17.773438 21.539062 19.691406 C 22.121094 20.867188 22.726562 22.035156 23.347656 23.191406 C 27.394531 31.296875 28.761719 40.878906 26.308594 49.769531 C 24.972656 53.339844 22.710938 56.160156 20.308594 59.078125 C 26.992188 58.589844 33.386719 55.585938 37.882812 50.539062 C 38.175781 50.105469 38.46875 49.675781 38.769531 49.230469 C 38.414062 48.757812 38.414062 48.757812 38.046875 48.277344 C 34.710938 43.621094 33.15625 38.875 31.953125 33.308594 C 29.8125 23.453125 27.007812 13.773438 18.484375 7.566406 C 16.910156 6.566406 15.34375 5.988281 13.539062 5.539062 Z M 46.152344 11.691406 C 46.355469 13.722656 46.558594 15.753906 46.769531 17.847656 C 46.363281 17.847656 45.957031 17.847656 45.539062 17.847656 C 45.484375 18.261719 45.433594 18.679688 45.378906 19.109375 C 44.375 25.746094 42.363281 30.410156 36.921875 34.460938 C 37.328125 36.289062 37.734375 38.117188 38.152344 40 C 38.964844 40.203125 39.777344 40.40625 40.617188 40.617188 C 47.960938 29.894531 47.960938 29.894531 49.230469 17.230469 C 48.785156 15.40625 48.222656 14.011719 47.382812 12.308594 C 46.976562 12.105469 46.574219 11.902344 46.152344 11.691406 Z M 46.152344 11.691406 " style="stroke: none;"></path></g></svg>